<?xml version="1.0" encoding="UTF-8" standalone="no"?>
<svg
   xmlns:dc="http://purl.org/dc/elements/1.1/"
   xmlns:cc="http://creativecommons.org/ns#"
   xmlns:rdf="http://www.w3.org/1999/02/22-rdf-syntax-ns#"
   xmlns:svg="http://www.w3.org/2000/svg"
   xmlns="http://www.w3.org/2000/svg"
   xmlns:sodipodi="http://sodipodi.sourceforge.net/DTD/sodipodi-0.dtd"
   xmlns:inkscape="http://www.inkscape.org/namespaces/inkscape"
   width="1024"
   height="1024"
   viewBox="0 0 270.93333 270.93333"
   version="1.1"
   id="svg8"
   inkscape:export-filename="C:\Users\kellewindows\Pictures\Logotesttransparent2.png"
   inkscape:export-xdpi="96"
   inkscape:export-ydpi="96"
   inkscape:version="1.0.2 (e86c870879, 2021-01-15, custom)"
   sodipodi:docname="logo_tran_2.svg">
  <defs
     id="defs2">
    <inkscape:path-effect
       effect="powerstroke"
       id="path-effect929"
       is_visible="true"
       lpeversion="1"
       offset_points="0.2,0.1322915 | 4.5,0.1322915 | 8.8,0.1322915"
       sort_points="true"
       interpolator_type="CubicBezierFit"
       interpolator_beta="0"
       start_linecap_type="round"
       linejoin_type="round"
       miter_limit="4"
       scale_width="10"
       end_linecap_type="zerowidth" />
    <inkscape:path-effect
       effect="powerstroke"
       id="path-effect858"
       is_visible="true"
       lpeversion="1"
       offset_points="0.2,0.1322915 | 5.5,0.1322915 | 10.8,0.1322915"
       sort_points="true"
       interpolator_type="CentripetalCatmullRom"
       interpolator_beta="0.2"
       start_linecap_type="zerowidth"
       linejoin_type="round"
       miter_limit="4"
       scale_width="1"
       end_linecap_type="zerowidth" />
    <inkscape:path-effect
       effect="powerstroke"
       id="path-effect850"
       is_visible="true"
       lpeversion="1"
       offset_points="0.2,0.1322915 | 5.5,0.1322915 | 10.8,0.1322915"
       sort_points="true"
       interpolator_type="CubicBezierFit"
       interpolator_beta="0"
       start_linecap_type="square"
       linejoin_type="round"
       miter_limit="4"
       scale_width="3"
       end_linecap_type="zerowidth" />
    <inkscape:path-effect
       effect="skeletal"
       id="path-effect848"
       is_visible="true"
       lpeversion="1"
       pattern="M 0,0 H 1"
       copytype="single_stretched"
       prop_scale="1"
       scale_y_rel="false"
       spacing="0.1"
       normal_offset="0"
       tang_offset="0"
       prop_units="false"
       vertical_pattern="false"
       hide_knot="false"
       fuse_tolerance="0" />
    <filter
       inkscape:collect="always"
       style="color-interpolation-filters:sRGB"
       id="filter1643"
       x="-2.0433779e-05"
       width="1.0000409"
       y="-1.8106727e-05"
       height="1.0000362">
      <feGaussianBlur
         inkscape:collect="always"
         stdDeviation="0.0014301361"
         id="feGaussianBlur1645" />
    </filter>
  </defs>
  <sodipodi:namedview
     id="base"
     pagecolor="#ffffff"
     bordercolor="#666666"
     borderopacity="1.0"
     inkscape:pageopacity="0.0"
     inkscape:pageshadow="2"
     inkscape:zoom="1"
     inkscape:cx="285.75454"
     inkscape:cy="521.51857"
     inkscape:document-units="px"
     inkscape:current-layer="layer1"
     inkscape:document-rotation="0"
     showgrid="false"
     showborder="true"
     units="px"
     inkscape:showpageshadow="false"
     borderlayer="false"
     inkscape:pagecheckerboard="false"
     inkscape:window-width="2560"
     inkscape:window-height="1377"
     inkscape:window-x="-8"
     inkscape:window-y="-8"
     inkscape:window-maximized="1" />
  <metadata
     id="metadata5">
    <rdf:RDF>
      <cc:Work
         rdf:about="">
        <dc:format>image/svg+xml</dc:format>
        <dc:type
           rdf:resource="http://purl.org/dc/dcmitype/StillImage" />
        <dc:title></dc:title>
      </cc:Work>
    </rdf:RDF>
  </metadata>
  <g
     inkscape:label="Layer 1"
     inkscape:groupmode="layer"
     id="layer1">
    <path
       sodipodi:type="spiral"
       style="fill:#f3b5cf;fill-opacity:1;fill-rule:nonzero;stroke:none;stroke-width:0.264583;filter:url(#filter1643)"
       id="path927"
       sodipodi:cx="149.10648"
       sodipodi:cy="146.7831"
       sodipodi:expansion="1"
       sodipodi:revolution="2.125"
       sodipodi:radius="106.09483"
       sodipodi:argument="-14.922565"
       sodipodi:t0="0"
       d="m 150.04192,145.84765 c -0.56115,-0.56115 -0.86475,-1.05425 -1.01468,-1.46302 -0.0747,-0.20369 -0.11342,-0.39182 -0.1262,-0.56617 -0.003,-0.0352 -0.004,-0.07 -0.005,-0.10463 -0.002,-0.13758 0.0114,-0.27384 0.0402,-0.41 0.0719,-0.33985 0.24501,-0.70397 0.54171,-1.0846 0.29771,-0.38192 0.70528,-0.76102 1.20914,-1.1197 1.01291,-0.72106 2.32451,-1.29515 3.63711,-1.62978 0.65152,-0.16609 1.28484,-0.26839 1.86152,-0.30409 0.58125,-0.036 1.07494,-0.002 1.45961,0.083 1.32301,0.29375 2.49492,0.75958 3.52792,1.36065 1.03328,0.60123 1.93734,1.34346 2.71905,2.19842 1.56514,1.71177 2.65384,3.89499 3.27732,6.30642 0.6246,2.41581 0.77783,5.03947 0.49499,7.598 -0.28292,2.55927 -0.99851,5.02041 -2.0817,7.11518 -1.97896,3.82709 -4.74247,6.80243 -7.98763,8.98375 -3.24911,2.18398 -6.99599,3.58144 -10.93964,4.22381 -3.9443,0.64247 -8.07343,0.52733 -12.0704,-0.30422 -3.99684,-0.83152 -7.84653,-2.37626 -11.23597,-4.579 -5.0082,-3.25475 -8.8771,-7.45463 -11.65878,-12.21536 -2.78324,-4.76341 -4.48339,-10.09811 -5.13576,-15.61837 -0.65243,-5.52077 -0.2557,-11.2188 1.1477,-16.69854 1.40332,-5.47941 3.81069,-10.731 7.17085,-15.36318 4.49402,-6.19528 10.11329,-10.95808 16.38287,-14.338044 6.27173,-3.38112 13.20165,-5.382163 20.31232,-6.040117 15.09372,-1.396628 29.81682,3.294308 40.83051,11.856391 7.5929,5.89756 13.14157,13.0253 16.95923,20.53826 4.08456,8.03822 6.24156,16.60973 6.84454,24.98101 1.36208,18.91051 -5.04778,36.56012 -15.53101,49.36162 -7.25546,8.88057 -15.83845,15.17445 -24.58967,19.41238 -9.7358,4.71473 -19.88664,6.99847 -29.48447,7.53022 -23.5878,1.30684 -43.8068,-7.594 -57.406056,-19.23369 -10.395282,-8.86088 -17.204578,-18.99731 -21.57085,-28.45034 -5.514317,-11.93856 -7.597328,-23.72331 -7.973199,-33.68232 -0.627156,-16.617 3.316397,-30.50564 7.523981,-40.30424 4.283215,-9.974733 9.800233,-18.045636 15.243233,-24.372931 4.555947,-5.255757 11.324002,-12.22677 19.362311,-18.385328 7.52017,-5.761574 23.68839,-16.729369 47.3291,-20.440798 -24.31849,-0.150962 -42.6348,8.168842 -51.925641,13.488134 -10.073869,5.767599 -17.227737,12.267022 -22.597753,18.660631 -6.04669,7.149456 -11.874939,16.259628 -16.214524,27.466252 -4.256101,10.99103 -7.927728,26.325 -6.619883,44.32976 0.783852,10.79109 3.457587,23.45671 9.772999,36.168 5.006925,10.07764 12.614816,20.76892 23.936491,30.00393 14.930121,12.13279 36.612771,21.01782 61.426701,19.2076 10.11147,-0.73765 20.76769,-3.3149 30.95332,-8.42468 9.16183,-4.59617 18.10088,-11.33197 25.6139,-20.72593 10.86112,-13.60984 17.33826,-32.14339 15.76783,-51.83739 -0.69616,-8.73011 -3.00624,-17.66833 -7.32283,-26.05066 -4.03679,-7.83898 -9.87368,-15.26669 -17.82416,-21.40143 -11.57881,-8.927089 -26.97617,-13.788389 -42.74788,-12.329026 -7.44199,0.688611 -14.71932,2.785081 -21.32408,6.345741 -6.60691,3.561815 -12.53338,8.585065 -17.26902,15.113425 -3.56463,4.91406 -6.11002,10.47272 -7.59227,16.26032 -1.48215,5.78727 -1.90377,11.81301 -1.21213,17.66549 0.69169,5.85301 2.49801,11.54106 5.47885,16.64264 2.98239,5.10425 7.13516,9.61159 12.50145,13.09906 3.67987,2.39148 7.83875,4.05627 12.13884,4.95088 4.29998,0.89458 8.75616,1.02217 13.03467,0.32526 4.27914,-0.69701 8.39254,-2.22103 11.99029,-4.63936 3.6017,-2.42098 6.67165,-5.72876 8.86183,-9.96433 1.24755,-2.41261 2.04653,-5.1924 2.3613,-8.03974 0.31485,-2.84808 0.14892,-5.79671 -0.56321,-8.55102 -0.71325,-2.75867 -1.97884,-5.34338 -3.88626,-7.4295 -0.95455,-1.04399 -2.06633,-1.9582 -3.34104,-2.69991 -1.27499,-0.74187 -2.70321,-1.30548 -4.28509,-1.65671 -0.68726,-0.15259 -1.43927,-0.18769 -2.19656,-0.14081 -0.76186,0.0471 -1.55992,0.17919 -2.35168,0.38104 -1.57396,0.40126 -3.19652,1.09749 -4.5179,2.03814 -0.66329,0.47217 -1.2729,1.02177 -1.76146,1.64852 -0.48957,0.62804 -0.87186,1.35255 -1.04347,2.16342 -0.0686,0.32413 -0.10258,0.6581 -0.0972,0.99953 0.001,0.0852 0.005,0.1706 0.0114,0.25626 0.0315,0.42982 0.12513,0.85914 0.28096,1.28396 0.31114,0.84826 0.86139,1.65638 1.62779,2.42278 a 1.322915,1.322915 90 0 0 1.87089,-1.87089 z"
       inkscape:path-effect="#path-effect929"
       transform="matrix(0.840888,0,0,0.840888,21.554372,21.554372)" />
    <circle
       style="opacity:1;fill:#fffea9;fill-opacity:1;stroke:none;stroke-width:0.420498;paint-order:markers stroke fill"
       id="path1523"
       cx="94.456245"
       cy="78.581245"
       r="23.547916" />
    <circle
       style="opacity:1;fill:#fffea9;fill-opacity:1;stroke:none;stroke-width:0.300898;paint-order:markers stroke fill"
       id="path1525"
       cx="156.36874"
       cy="144.19791"
       r="15.345832" />
    <g
       id="g1655"
       transform="matrix(1.9179306,0.7587897,-0.7587897,1.9179306,-273.58901,-78.725657)">
      <path
         id="path1529"
         style="fill:#fffea9;fill-opacity:1;stroke:none;stroke-width:0.264583;paint-order:markers stroke fill"
         d="m 201.5448,63.764583 a 9.2604171,9.2604171 0 0 0 -9.19272,9.260416 9.2604171,9.2604171 0 0 0 0.0217,0.632002 l 0.0232,0.0047 c 2.02491,0.417634 5.49593,0.671293 9.21546,0.671277 3.71935,-8e-6 7.19014,-0.253664 9.21494,-0.671277 l 0.0238,-0.0052 a 9.2604171,9.2604171 0 0 0 0.0217,-0.6315 9.2604171,9.2604171 0 0 0 -9.26041,-9.260416 9.2604171,9.2604171 0 0 0 -0.0677,0 z m -9.07076,10.07742 c 0.001,0.01032 0.002,0.02069 0.003,0.03101 0.004,0.04321 0.008,0.08656 0.0129,0.129707 v 5.29e-4 c 0.005,0.04304 0.01,0.08621 0.015,0.129191 h -5.3e-4 c 0.005,0.04322 0.0111,0.08657 0.0171,0.129706 0.006,0.04305 0.0121,0.08622 0.0186,0.129191 0.006,0.04289 0.0132,0.08588 0.0202,0.128675 l -5.3e-4,-5.29e-4 c 0.007,0.04289 0.0149,0.08537 0.0227,0.128156 v 5.29e-4 c 0.005,0.02895 0.0111,0.05792 0.0165,0.08681 2.68357,0.225018 5.81196,0.346154 9.01392,0.346231 3.20197,-7.7e-5 6.33036,-0.121213 9.01392,-0.346231 0.002,-0.0081 0.004,-0.01619 0.005,-0.02429 0.008,-0.04261 0.0159,-0.08543 0.0233,-0.128156 0.007,-0.04296 0.014,-0.08562 0.0207,-0.128675 v -5.29e-4 c 0.007,-0.04279 0.0135,-0.08579 0.0196,-0.128675 0.006,-0.04314 0.0124,-0.08597 0.0181,-0.12919 0.005,-0.04314 0.0102,-0.08598 0.015,-0.129191 v -5.29e-4 c 0.005,-0.04315 0.01,-0.08598 0.0139,-0.129191 v -5.29e-4 c 0.003,-0.03141 0.006,-0.06262 0.009,-0.09405 -2.05933,0.412099 -5.46299,0.661451 -9.13846,0.661459 -3.67542,1.6e-5 -7.07899,-0.249386 -9.13846,-0.661459 z m 0.0708,1.0604 a 9.2604171,9.2604171 0 0 0 9.06766,7.383013 9.2604171,9.2604171 0 0 0 9.06766,-7.383013 c -2.69754,0.227476 -5.84712,0.349253 -9.06766,0.349335 -3.22054,-8.2e-5 -6.37012,-0.121859 -9.06766,-0.349335 z" />
      <path
         id="path1534"
         style="fill:#f3b5cf;fill-opacity:1;stroke:none;stroke-width:0.170252;paint-order:markers stroke fill"
         d="m 192.52726,71.233894 a 16.580718,2.1415053 0 0 0 -7.49566,1.791105 16.580718,2.1415053 0 0 0 7.49566,1.791105 16.580718,2.1415053 0 0 0 9.08524,0.350367 16.580718,2.1415053 0 0 0 9.08523,-0.350367 16.580718,2.1415053 0 0 0 7.49567,-1.791105 16.580718,2.1415053 0 0 0 -7.49515,-1.791105 9.2604171,9.2604171 0 0 1 0.005,0.02326 9.2604171,9.2604171 0 0 1 0.0238,0.129707 9.2604171,9.2604171 0 0 1 0.0227,0.129709 9.2604171,9.2604171 0 0 1 0.0202,0.129707 9.2604171,9.2604171 0 0 1 0.0186,0.130225 9.2604171,9.2604171 0 0 1 0.017,0.130741 9.2604171,9.2604171 0 0 1 0.015,0.130742 9.2604171,9.2604171 0 0 1 0.008,0.077 11.029048,1.4866949 0 0 1 1.81384,0.816485 11.029048,1.4866949 0 0 1 -1.7973,0.813388 11.029048,1.4866949 0 0 1 -9.232,0.673343 11.029048,1.4866949 0 0 1 -9.23251,-0.673343 11.029048,1.4866949 0 0 1 -1.79627,-0.813388 11.029048,1.4866949 0 0 1 1.81332,-0.817004 9.2604171,9.2604171 0 0 1 0.001,-0.0093 9.2604171,9.2604171 0 0 1 0.0139,-0.130741 9.2604171,9.2604171 0 0 1 0.0155,-0.130742 9.2604171,9.2604171 0 0 1 0.0181,-0.130741 9.2604171,9.2604171 0 0 1 0.0196,-0.129709 9.2604171,9.2604171 0 0 1 0.0212,-0.130225 9.2604171,9.2604171 0 0 1 0.0233,-0.129191 9.2604171,9.2604171 0 0 1 0.0176,-0.08992 z" />
    </g>
    <g
       id="g1659"
       transform="matrix(2.6688475,0,0,2.6688475,-436.5106,-140.83158)">
      <path
         id="path1649"
         style="fill:#f3b5cf;fill-opacity:1;stroke:none;stroke-width:0.264583;paint-order:markers stroke fill"
         d="m 234.89691,65.806674 a 9.2604171,9.2604171 0 0 0 -4.15244,12.370068 9.2604171,9.2604171 0 0 0 0.29883,0.557313 l 0.0229,-0.006 c 2.00095,-0.520461 5.22657,-1.827235 8.56298,-3.471405 3.33625,-1.644083 6.33742,-3.405817 7.96906,-4.675444 l 0.019,-0.01518 a 9.2604171,9.2604171 0 0 0 -0.25968,-0.576047 9.2604171,9.2604171 0 0 0 -12.39998,-4.213172 9.2604171,9.2604171 0 0 0 -0.0607,0.02993 z m -3.6819,13.049009 c 0.005,0.0088 0.0109,0.01767 0.0164,0.02649 0.0227,0.03699 0.0454,0.07411 0.0689,0.110645 l 2.4e-4,4.74e-4 c 0.0235,0.0364 0.0471,0.07291 0.0706,0.109254 l -4.8e-4,2.34e-4 c 0.0236,0.03656 0.0482,0.07275 0.0727,0.108788 0.0244,0.03596 0.049,0.07199 0.0738,0.107662 0.0243,0.03582 0.0498,0.0712 0.075,0.106492 l -7.1e-4,-2.4e-4 c 0.0252,0.03538 0.0511,0.06999 0.077,0.104922 l 2.3e-4,4.74e-4 c 0.0173,0.02376 0.0356,0.04705 0.0532,0.07058 2.50663,-0.984386 5.36634,-2.25858 8.23852,-3.673883 2.87213,-1.415446 5.62475,-2.906957 7.93243,-4.295021 -0.002,-0.0082 -0.004,-0.01629 -0.006,-0.024 -0.0117,-0.04176 -0.0235,-0.08366 -0.0358,-0.125255 -0.0127,-0.04163 -0.0253,-0.08299 -0.0383,-0.124572 l -2.3e-4,-4.74e-4 c -0.0126,-0.04148 -0.0258,-0.08292 -0.0393,-0.124085 -0.0137,-0.04135 -0.0269,-0.0826 -0.0409,-0.123884 -0.0146,-0.04091 -0.0289,-0.08163 -0.0437,-0.122515 l -2.4e-4,-4.75e-4 c -0.0146,-0.04091 -0.029,-0.08154 -0.0446,-0.122028 l -2.4e-4,-4.75e-4 c -0.0112,-0.0295 -0.0223,-0.05882 -0.0335,-0.08834 -1.66505,1.279945 -4.60791,3.008144 -7.9048,4.632831 -3.29684,1.624672 -6.46008,2.90545 -8.48957,3.446175 z m 0.53224,0.919882 a 9.2604171,9.2604171 0 0 0 11.39721,2.614346 9.2604171,9.2604171 0 0 0 4.87015,-10.63076 c -2.31914,1.396448 -5.09048,2.897901 -7.97926,4.32156 -2.88886,1.423512 -5.76786,2.706497 -8.2881,3.694854 z" />
      <path
         id="path1651"
         style="fill:#fffea9;fill-opacity:1;stroke:none;stroke-width:0.170252;paint-order:markers stroke fill"
         d="m 230.10988,76.492688 a 2.1415053,16.580718 63.76632 0 0 -5.93187,4.919949 2.1415053,16.580718 63.76632 0 0 7.51532,-1.706711 2.1415053,16.580718 63.76632 0 0 8.30432,-3.701699 2.1415053,16.580718 63.76632 0 0 7.99457,-4.330253 2.1415053,16.580718 63.76632 0 0 5.93188,-4.919953 2.1415053,16.580718 63.76632 0 0 -7.51487,1.706486 9.2604171,9.2604171 0 0 1 0.0148,0.01865 9.2604171,9.2604171 0 0 1 0.0787,0.105827 9.2604171,9.2604171 0 0 1 0.0777,0.106314 9.2604171,9.2604171 0 0 1 0.0755,0.107418 9.2604171,9.2604171 0 0 1 0.0742,0.10859 9.2604171,9.2604171 0 0 1 0.073,0.10976 9.2604171,9.2604171 0 0 1 0.0712,0.110645 9.2604171,9.2604171 0 0 1 0.0412,0.06553 1.4866949,11.029048 63.76632 0 1 1.98793,-0.06939 1.4866949,11.029048 63.76632 0 1 -1.25263,1.524074 1.4866949,11.029048 63.76632 0 1 -7.98346,4.684839 1.4866949,11.029048 63.76632 0 1 -8.57919,3.477088 1.4866949,11.029048 63.76632 0 1 -1.97079,0.0644 1.4866949,11.029048 63.76632 0 1 1.2654,-1.534399 9.2604171,9.2604171 0 0 1 -0.003,-0.0088 9.2604171,9.2604171 0 0 1 -0.0453,-0.123418 9.2604171,9.2604171 0 0 1 -0.0439,-0.124127 9.2604171,9.2604171 0 0 1 -0.0416,-0.125275 9.2604171,9.2604171 0 0 1 -0.0398,-0.125013 9.2604171,9.2604171 0 0 1 -0.0385,-0.126183 9.2604171,9.2604171 0 0 1 -0.0362,-0.126183 9.2604171,9.2604171 0 0 1 -0.024,-0.08844 z" />
    </g>
    <path
       sodipodi:type="star"
       style="opacity:1;fill:#fffea9;fill-opacity:1;stroke:none;stroke-width:0.264583;stroke-miterlimit:4;stroke-dasharray:none;stroke-opacity:1;paint-order:markers stroke fill"
       id="path1661"
       sodipodi:sides="5"
       sodipodi:cx="85.460419"
       sodipodi:cy="158.75"
       sodipodi:r1="4.0386891"
       sodipodi:r2="1.1712198"
       sodipodi:arg1="0.55165498"
       sodipodi:arg2="1.1799735"
       inkscape:flatsided="false"
       inkscape:rounded="0"
       inkscape:randomized="0"
       d="m 88.900002,160.86667 -2.993408,-1.03376 -1.396355,2.84241 0.05815,-3.16635 -3.134799,-0.44965 3.029348,-0.92315 -0.541057,-3.12033 1.814088,2.59582 2.800407,-1.47881 -1.90818,2.52745 z"
       inkscape:transform-center-x="0.29362177"
       inkscape:transform-center-y="0.095584178" />
    <path
       sodipodi:type="star"
       style="opacity:1;fill:#fffea9;fill-opacity:1;stroke:none;stroke-width:0.264583;stroke-miterlimit:4;stroke-dasharray:none;stroke-opacity:1;paint-order:markers stroke fill"
       id="path1663"
       sodipodi:sides="5"
       sodipodi:cx="201.87708"
       sodipodi:cy="142.34583"
       sodipodi:r1="4.3636198"
       sodipodi:r2="1.2654498"
       sodipodi:arg1="1.815775"
       sodipodi:arg2="2.4440935"
       inkscape:flatsided="false"
       inkscape:rounded="0"
       inkscape:randomized="0"
       d="m 200.81874,146.57916 0.0884,-3.42053 -3.38328,-0.51117 3.28045,-0.9729 -0.55935,-3.37565 1.939,2.81925 3.03759,-1.5751 -2.08208,2.71529 2.43667,2.40218 -3.22579,-1.1411 z"
       inkscape:transform-center-x="0.32704304"
       inkscape:transform-center-y="0.093210956" />
    <path
       sodipodi:type="star"
       style="opacity:1;fill:#fffea9;fill-opacity:1;stroke:none;stroke-width:0.264583;stroke-miterlimit:4;stroke-dasharray:none;stroke-opacity:1;paint-order:markers stroke fill"
       id="path1665"
       sodipodi:sides="5"
       sodipodi:cx="151.07709"
       sodipodi:cy="210.34375"
       sodipodi:r1="1.9261957"
       sodipodi:r2="0.55859673"
       sodipodi:arg1="1.849096"
       sodipodi:arg2="2.4774145"
       inkscape:flatsided="false"
       inkscape:rounded="0"
       inkscape:randomized="0"
       d="m 150.54792,212.19583 0.0893,-1.50775 -1.48511,-0.27527 1.46156,-0.38098 -0.19713,-1.49748 0.81399,1.2723 1.36327,-0.65023 -0.95849,1.1673 1.03967,1.09562 -1.40636,-0.55086 z"
       inkscape:transform-center-x="0.16352154"
       inkscape:transform-center-y="0.021339977" />
    <path
       sodipodi:type="star"
       style="opacity:1;fill:#f3b5cf;fill-opacity:1;stroke:none;stroke-width:0.264583;stroke-miterlimit:4;stroke-dasharray:none;stroke-opacity:1;paint-order:markers stroke fill"
       id="path1667"
       sodipodi:sides="5"
       sodipodi:cx="149.75417"
       sodipodi:cy="107.95"
       sodipodi:r1="4.3071051"
       sodipodi:r2="1.2490604"
       sodipodi:arg1="1.3854484"
       sodipodi:arg2="2.0137669"
       inkscape:flatsided="false"
       inkscape:rounded="0"
       inkscape:randomized="0"
       d="m 150.54792,112.18333 -1.32913,-3.10483 -3.24548,0.93457 2.54214,-2.22352 -1.89173,-2.79784 2.90026,1.73062 2.07632,-2.66373 -0.74969,3.29311 3.17498,1.15156 -3.36359,0.30463 z"
       inkscape:transform-center-x="-0.24528219"
       inkscape:transform-center-y="0.17097006" />
    <path
       sodipodi:type="star"
       style="opacity:1;fill:#fffea9;fill-opacity:1;stroke:none;stroke-width:0.264583;stroke-miterlimit:4;stroke-dasharray:none;stroke-opacity:1;paint-order:markers stroke fill"
       id="path1671"
       sodipodi:sides="4"
       sodipodi:cx="136.78959"
       sodipodi:cy="76.993752"
       sodipodi:r1="6.3720102"
       sodipodi:r2="1.8478831"
       sodipodi:arg1="0.84415399"
       sodipodi:arg2="1.6295521"
       inkscape:flatsided="false"
       inkscape:rounded="0"
       inkscape:randomized="0"
       d="m 141.02293,81.756251 -4.34184,-2.917805 -4.65399,2.388639 2.9178,-4.341845 -2.38864,-4.653988 4.34185,2.917805 4.65399,-2.388639 -2.91781,4.341845 z" />
    <path
       sodipodi:type="star"
       style="opacity:1;fill:#f3b5cf;fill-opacity:1;stroke:none;stroke-width:0.264583;stroke-miterlimit:4;stroke-dasharray:none;stroke-opacity:1;paint-order:markers stroke fill"
       id="path1673"
       sodipodi:sides="4"
       sodipodi:cx="214.04792"
       sodipodi:cy="215.37083"
       sodipodi:r1="15.563259"
       sodipodi:r2="4.5133448"
       sodipodi:arg1="1.8817946"
       sodipodi:arg2="2.6671928"
       inkscape:flatsided="false"
       inkscape:rounded="0"
       inkscape:randomized="0"
       d="m 209.28541,230.1875 0.74758,-12.75495 -10.80174,-6.82422 12.75495,0.74758 6.82421,-10.80174 -0.74757,12.75495 10.80174,6.82421 -12.75495,-0.74757 z" />
    <path
       sodipodi:type="star"
       style="opacity:1;fill:#fffea9;fill-opacity:1;stroke:none;stroke-width:0.162358;stroke-miterlimit:4;stroke-dasharray:none;stroke-opacity:1;paint-order:markers stroke fill"
       id="path1675"
       sodipodi:sides="4"
       sodipodi:cx="37.438543"
       sodipodi:cy="108.08228"
       sodipodi:r1="14.481745"
       sodipodi:r2="4.1997066"
       sodipodi:arg1="0.73781506"
       sodipodi:arg2="1.5232132"
       inkscape:flatsided="false"
       inkscape:rounded="0"
       inkscape:randomized="0"
       d="m 48.154165,117.82376 -10.515864,-5.54652 -9.941235,6.52067 5.546522,-10.51587 -6.52067,-9.941233 10.515864,5.546523 9.941235,-6.52067 -5.546523,10.51586 z" />
    <path
       sodipodi:type="star"
       style="opacity:1;fill:#fffea9;fill-opacity:1;stroke:none;stroke-width:0.264583;stroke-miterlimit:4;stroke-dasharray:none;stroke-opacity:1;paint-order:markers stroke fill"
       id="path1677"
       sodipodi:sides="4"
       sodipodi:cx="35.983334"
       sodipodi:cy="157.42708"
       sodipodi:r1="5.856802"
       sodipodi:r2="1.6984725"
       sodipodi:arg1="1.2490458"
       sodipodi:arg2="2.0344439"
       inkscape:flatsided="false"
       inkscape:rounded="0"
       inkscape:randomized="0"
       d="m 37.835417,162.98333 -2.611663,-4.03709 -4.796671,0.33292 4.037091,-2.61166 -0.332924,-4.79667 2.611664,4.03709 4.79667,-0.33293 -4.03709,2.61167 z" />
    <path
       sodipodi:type="star"
       style="opacity:1;fill:#fffea9;fill-opacity:1;stroke:none;stroke-width:0.264583;stroke-miterlimit:4;stroke-dasharray:none;stroke-opacity:1;paint-order:markers stroke fill"
       id="path1681"
       sodipodi:sides="4"
       sodipodi:cx="114.03542"
       sodipodi:cy="203.99374"
       sodipodi:r1="12.24252"
       sodipodi:r2="3.5503309"
       sodipodi:arg1="-1.6790669"
       sodipodi:arg2="-0.89366875"
       inkscape:flatsided="false"
       inkscape:rounded="0"
       inkscape:randomized="0"
       d="m 112.71251,191.82291 3.5474,9.40379 9.94635,1.44413 -9.4038,3.5474 -1.44412,9.94635 -3.5474,-9.40379 -9.94635,-1.44413 9.40379,-3.5474 z" />
    <circle
       style="opacity:1;fill:#f3b5cf;fill-opacity:1;stroke:none;stroke-width:0.264583;stroke-miterlimit:4;stroke-dasharray:none;stroke-opacity:1;paint-order:markers stroke fill"
       id="path1683"
       cx="83.872917"
       cy="126.73541"
       r="7.6729164" />
  </g>
</svg>
